<svg width="371" height="179" viewBox="0 0 371 179" fill="none" xmlns="http://www.w3.org/2000/svg">
<path d="M201.544 46.88C202.888 46.88 203.968 47.312 204.784 48.176C205.6 48.992 206.008 50.096 206.008 51.488V94.112C206.008 95.456 205.624 96.512 204.856 97.28C204.088 98.048 203.08 98.432 201.832 98.432C200.584 98.432 199.6 98.048 198.88 97.28C198.16 96.512 197.8 95.456 197.8 94.112V64.448L185.56 87.632C184.984 88.688 184.36 89.48 183.688 90.008C183.016 90.488 182.224 90.728 181.312 90.728C180.4 90.728 179.608 90.488 178.936 90.008C178.264 89.528 177.64 88.736 177.064 87.632L164.752 64.808V94.112C164.752 95.408 164.368 96.464 163.6 97.28C162.88 98.048 161.896 98.432 160.648 98.432C159.4 98.432 158.416 98.048 157.696 97.28C156.976 96.512 156.616 95.456 156.616 94.112V51.488C156.616 50.096 157 48.992 157.768 48.176C158.584 47.312 159.664 46.88 161.008 46.88C162.88 46.88 164.344 47.912 165.4 49.976L181.384 80.432L197.296 49.976C198.352 47.912 199.768 46.88 201.544 46.88ZM244.083 88.352C244.899 88.352 245.547 88.664 246.027 89.288C246.555 89.912 246.819 90.752 246.819 91.808C246.819 93.296 245.931 94.544 244.155 95.552C242.523 96.464 240.675 97.208 238.611 97.784C236.547 98.312 234.579 98.576 232.707 98.576C227.043 98.576 222.555 96.944 219.243 93.68C215.931 90.416 214.275 85.952 214.275 80.288C214.275 76.688 214.995 73.496 216.435 70.712C217.875 67.928 219.891 65.768 222.483 64.232C225.123 62.696 228.099 61.928 231.411 61.928C234.579 61.928 237.339 62.624 239.691 64.016C242.043 65.408 243.867 67.376 245.163 69.92C246.459 72.464 247.107 75.464 247.107 78.92C247.107 80.984 246.195 82.016 244.371 82.016H223.131C223.419 85.328 224.355 87.776 225.939 89.36C227.523 90.896 229.827 91.664 232.851 91.664C234.387 91.664 235.731 91.472 236.883 91.088C238.083 90.704 239.427 90.176 240.915 89.504C242.355 88.736 243.411 88.352 244.083 88.352ZM231.627 68.264C229.179 68.264 227.211 69.032 225.723 70.568C224.283 72.104 223.419 74.312 223.131 77.192H239.403C239.307 74.264 238.587 72.056 237.243 70.568C235.899 69.032 234.027 68.264 231.627 68.264Z" fill="black"/>
<path d="M201.544 102.88C202.888 102.88 203.968 103.312 204.784 104.176C205.6 104.992 206.008 106.096 206.008 107.488V150.112C206.008 151.456 205.624 152.512 204.856 153.28C204.088 154.048 203.08 154.432 201.832 154.432C200.584 154.432 199.6 154.048 198.88 153.28C198.16 152.512 197.8 151.456 197.8 150.112V120.448L185.56 143.632C184.984 144.688 184.36 145.48 183.688 146.008C183.016 146.488 182.224 146.728 181.312 146.728C180.4 146.728 179.608 146.488 178.936 146.008C178.264 145.528 177.64 144.736 177.064 143.632L164.752 120.808V150.112C164.752 151.408 164.368 152.464 163.6 153.28C162.88 154.048 161.896 154.432 160.648 154.432C159.4 154.432 158.416 154.048 157.696 153.28C156.976 152.512 156.616 151.456 156.616 150.112V107.488C156.616 106.096 157 104.992 157.768 104.176C158.584 103.312 159.664 102.88 161.008 102.88C162.88 102.88 164.344 103.912 165.4 105.976L181.384 136.432L197.296 105.976C198.352 103.912 199.768 102.88 201.544 102.88ZM232.275 154.576C228.675 154.576 225.507 153.832 222.771 152.344C220.083 150.856 217.995 148.72 216.507 145.936C215.019 143.152 214.275 139.912 214.275 136.216C214.275 132.52 215.019 129.304 216.507 126.568C217.995 123.784 220.083 121.648 222.771 120.16C225.507 118.672 228.675 117.928 232.275 117.928C235.875 117.928 239.019 118.672 241.707 120.16C244.443 121.648 246.531 123.784 247.971 126.568C249.459 129.304 250.203 132.52 250.203 136.216C250.203 139.912 249.459 143.152 247.971 145.936C246.531 148.72 244.443 150.856 241.707 152.344C239.019 153.832 235.875 154.576 232.275 154.576ZM232.203 147.592C235.131 147.592 237.363 146.632 238.899 144.712C240.435 142.792 241.203 139.96 241.203 136.216C241.203 132.52 240.435 129.712 238.899 127.792C237.363 125.824 235.155 124.84 232.275 124.84C229.395 124.84 227.163 125.824 225.579 127.792C224.043 129.712 223.275 132.52 223.275 136.216C223.275 139.96 224.043 142.792 225.579 144.712C227.115 146.632 229.323 147.592 232.203 147.592ZM278.081 117.928C282.305 117.928 285.449 119.128 287.513 121.528C289.577 123.928 290.609 127.552 290.609 132.4V150.112C290.609 151.456 290.201 152.512 289.385 153.28C288.617 154.048 287.537 154.432 286.145 154.432C284.753 154.432 283.649 154.048 282.833 153.28C282.017 152.512 281.609 151.456 281.609 150.112V132.904C281.609 130.168 281.081 128.176 280.025 126.928C279.017 125.68 277.409 125.056 275.201 125.056C272.609 125.056 270.521 125.872 268.937 127.504C267.401 129.136 266.633 131.32 266.633 134.056V150.112C266.633 151.456 266.225 152.512 265.409 153.28C264.593 154.048 263.489 154.432 262.097 154.432C260.705 154.432 259.601 154.048 258.785 153.28C258.017 152.512 257.633 151.456 257.633 150.112V122.248C257.633 121 258.041 119.992 258.857 119.224C259.673 118.456 260.777 118.072 262.169 118.072C263.417 118.072 264.425 118.456 265.193 119.224C266.009 119.944 266.417 120.904 266.417 122.104V124.048C267.617 122.08 269.225 120.568 271.241 119.512C273.257 118.456 275.537 117.928 278.081 117.928ZM327.614 144.352C328.43 144.352 329.078 144.664 329.558 145.288C330.086 145.912 330.35 146.752 330.35 147.808C330.35 149.296 329.462 150.544 327.686 151.552C326.054 152.464 324.206 153.208 322.142 153.784C320.078 154.312 318.11 154.576 316.238 154.576C310.574 154.576 306.086 152.944 302.774 149.68C299.462 146.416 297.806 141.952 297.806 136.288C297.806 132.688 298.526 129.496 299.966 126.712C301.406 123.928 303.422 121.768 306.014 120.232C308.654 118.696 311.63 117.928 314.942 117.928C318.11 117.928 320.87 118.624 323.222 120.016C325.574 121.408 327.398 123.376 328.694 125.92C329.99 128.464 330.638 131.464 330.638 134.92C330.638 136.984 329.726 138.016 327.902 138.016H306.662C306.95 141.328 307.886 143.776 309.47 145.36C311.054 146.896 313.358 147.664 316.382 147.664C317.918 147.664 319.262 147.472 320.414 147.088C321.614 146.704 322.958 146.176 324.446 145.504C325.886 144.736 326.942 144.352 327.614 144.352ZM315.158 124.264C312.71 124.264 310.742 125.032 309.254 126.568C307.814 128.104 306.95 130.312 306.662 133.192H322.934C322.838 130.264 322.118 128.056 320.774 126.568C319.43 125.032 317.558 124.264 315.158 124.264ZM361.99 120.664C362.374 119.8 362.878 119.176 363.502 118.792C364.174 118.36 364.894 118.144 365.662 118.144C366.766 118.144 367.75 118.528 368.614 119.296C369.526 120.016 369.982 120.928 369.982 122.032C369.982 122.56 369.838 123.112 369.55 123.688L349.894 164.872C349.078 166.504 347.806 167.32 346.078 167.32C344.974 167.32 343.99 166.96 343.126 166.24C342.31 165.568 341.902 164.704 341.902 163.648C341.902 163.12 342.046 162.52 342.334 161.848L347.23 151.552L333.838 123.688C333.598 123.208 333.478 122.656 333.478 122.032C333.478 120.928 333.934 119.992 334.846 119.224C335.806 118.456 336.886 118.072 338.086 118.072C338.902 118.072 339.646 118.288 340.318 118.72C340.99 119.104 341.518 119.728 341.902 120.592L351.982 142.84L361.99 120.664Z" fill="black"/>
<g clip-path="url(#clip0)">
<path d="M147.61 90.7884H145.291V69.8952C145.291 66.5875 143.644 63.6589 141.13 61.8794V59.0346C141.13 54.908 137.773 51.551 133.647 51.551H131.915L138.541 41.8272C140.762 38.5679 139.918 34.109 136.659 31.8875L91.6931 1.24471C90.1143 0.168487 88.2113 -0.2287 86.3332 0.127618C84.4559 0.483331 82.8293 1.54865 81.7534 3.12772L42.9426 60.079H32.1425L34.7481 33.7018C34.7775 33.4045 34.9707 33.1469 35.2401 33.0454C38.5971 31.7797 41.5064 29.416 43.4318 26.3898C43.5835 26.1516 43.8695 26.0153 44.1656 26.0453L61.1051 27.7188C62.3197 27.8366 63.4001 26.952 63.52 25.738C63.6399 24.5241 62.7532 23.443 61.5392 23.3231L44.5997 21.6496C42.6335 21.4571 40.7583 22.3632 39.7048 24.0185C38.2892 26.2436 36.1501 27.9813 33.6819 28.9119C31.824 29.6124 30.5483 31.2811 30.3521 33.2673L27.7038 60.0787H24.8875L29.0083 18.3607C29.1566 16.8591 30.4968 15.756 32.0002 15.9064L66.2316 19.288C67.4456 19.4051 68.5266 18.5212 68.6465 17.3072C68.7664 16.0932 67.8797 15.0122 66.6657 14.8923L32.4343 11.5107C28.5097 11.1235 25.0001 14.001 24.6123 17.9263L21.2907 51.551H15.6341C11.5078 51.551 8.15051 54.908 8.15051 59.0346V60.9751C4.77472 62.5294 2.42429 65.9418 2.42429 69.8952V145.184C2.42429 150.597 6.82786 155 12.2411 155H135.474C140.887 155 145.291 150.597 145.291 145.184V124.291H147.61C150.348 124.291 152.575 122.064 152.575 119.326V95.7536C152.576 93.0156 150.348 90.7884 147.61 90.7884ZM133.647 55.9685C135.338 55.9682 136.713 57.3438 136.713 59.0349V60.1602C136.307 60.1087 135.894 60.0793 135.474 60.0793H126.103L128.904 55.9685H133.647ZM85.4035 5.61498C85.8152 5.01103 86.4373 4.60355 87.1554 4.46732C87.3271 4.43492 87.4993 4.41858 87.6704 4.41858C88.2144 4.41858 88.746 4.58145 89.2055 4.89447L134.171 35.5373C135.418 36.387 135.741 38.0926 134.891 39.3393L120.758 60.0784H117.366L124.295 49.9105C125.419 48.2615 125.512 46.1629 124.536 44.4334C123.24 42.1356 122.715 39.4301 123.057 36.8148C123.311 34.8691 122.455 32.9698 120.823 31.8575L97.5126 15.9724C95.8799 14.8599 93.7989 14.7579 92.0812 15.7063C89.7729 16.9808 87.0625 17.4813 84.4499 17.1156C82.5124 16.8437 80.5473 17.7186 79.4402 19.3428L51.6798 60.0787H48.2879L85.4035 5.61498ZM86.3762 43.121C76.758 43.121 68.8627 50.6207 68.2194 60.0787H57.0246L83.0897 21.8303C83.09 21.8303 83.09 21.8303 83.09 21.8303C83.238 21.6127 83.4835 21.4831 83.7357 21.4831C83.7693 21.4831 83.8029 21.4855 83.8365 21.4901C87.39 21.9872 91.0758 21.3072 94.2158 19.5735C94.4628 19.4366 94.7801 19.4563 95.0247 19.6228L118.335 35.5082C118.579 35.6747 118.713 35.9629 118.677 36.2426C118.211 39.7994 118.926 43.4789 120.689 46.6037C120.831 46.8547 120.813 47.1762 120.646 47.4229L112.021 60.0784H104.534C103.89 50.6207 95.995 43.121 86.3762 43.121ZM100.105 60.079H72.6481C73.2808 53.0589 79.1944 47.5385 86.3762 47.5385C93.5582 47.5382 99.4722 53.0589 100.105 60.079ZM12.5677 59.0346C12.5677 57.3435 13.943 55.9679 15.6341 55.9679H20.8545L20.4485 60.0787H12.5677V59.0346ZM6.84148 69.8952C6.84148 66.9181 9.26366 64.4959 12.2411 64.4959H135.474C138.452 64.4959 140.874 66.9181 140.874 69.8952V76.0237H6.84148V69.8952ZM140.874 145.184C140.874 148.161 138.452 150.583 135.474 150.583H12.2411C9.26366 150.583 6.84148 148.161 6.84148 145.184V139.055H18.7517C19.9717 139.055 20.9601 138.066 20.9601 136.847C20.9601 135.627 19.9714 134.638 18.7517 134.638H6.84148V80.4409H140.874V90.7884H119.874H119.874C113.257 90.7884 107.526 94.6452 104.806 100.228C104.797 100.247 104.786 100.265 104.777 100.284C104.754 100.331 104.734 100.381 104.712 100.428C104.388 101.116 104.106 101.829 103.877 102.564C103.876 102.566 103.876 102.568 103.875 102.57C103.386 104.141 103.123 105.81 103.123 107.54C103.123 116.776 110.637 124.291 119.873 124.291H119.874H140.873V134.638H32.8936C31.6736 134.638 30.6851 135.627 30.6851 136.847C30.6851 138.066 31.6739 139.055 32.8936 139.055H140.874V145.184ZM148.159 119.326C148.159 119.628 147.913 119.874 147.61 119.874H119.874C115.199 119.874 111.122 117.258 109.031 113.414C108.936 113.239 108.845 113.062 108.758 112.882C108.585 112.523 108.428 112.154 108.29 111.776C107.805 110.454 107.54 109.027 107.54 107.54C107.54 106.052 107.805 104.625 108.29 103.303C108.429 102.926 108.585 102.557 108.758 102.197C108.845 102.017 108.936 101.84 109.031 101.665C111.122 97.8209 115.199 95.2056 119.874 95.2056H147.61C147.912 95.2056 148.159 95.4514 148.159 95.7536V119.326Z" fill="#62CF35"/>
<path d="M120.392 98.5785C115.45 98.5785 111.431 102.598 111.431 107.539C111.431 112.48 115.45 116.5 120.392 116.5C125.333 116.5 129.353 112.48 129.353 107.539C129.353 102.598 125.333 98.5785 120.392 98.5785ZM120.392 112.083C117.886 112.083 115.848 110.045 115.848 107.539C115.848 105.034 117.886 102.996 120.392 102.996C122.897 102.996 124.935 105.034 124.935 107.539C124.935 110.045 122.897 112.083 120.392 112.083Z" fill="#50B326"/>
</g>
<defs>
<clipPath id="clip0">
<rect width="155" height="155" fill="white"/>
</clipPath>
</defs>
</svg>
